<?xml version="1.0" standalone="no"?>
<!DOCTYPE svg PUBLIC "-//W3C//DTD SVG 20010904//EN"
 "http://www.w3.org/TR/2001/REC-SVG-20010904/DTD/svg10.dtd">
<svg version="1.0" xmlns="http://www.w3.org/2000/svg"
 width="50.000000pt" height="50.000000pt" viewBox="0 0 50.000000 50.000000"
 preserveAspectRatio="xMidYMid meet">
<metadata>
Created by potrace 1.16, written by Peter Selinger 2001-2019
</metadata>
<g transform="translate(0.000000,50.000000) scale(0.100000,-0.100000)"
fill="#000000" stroke="none">
<path d="M161 483 c-62 -22 -124 -88 -146 -153 -75 -224 177 -418 372 -287
198 133 117 439 -120 453 -41 2 -77 -2 -106 -13z m163 -25 c51 -16 119 -82
136 -133 7 -20 10 -63 8 -95 -8 -109 -89 -190 -198 -198 -76 -6 -124 11 -174
62 -88 87 -88 224 -1 311 60 61 141 79 229 53z"/>
<path d="M121 356 c-7 -8 -12 -29 -12 -47 1 -19 -2 -55 -5 -82 -3 -26 -3 -59
0 -72 6 -24 9 -25 103 -25 78 0 98 3 108 17 12 16 14 16 38 0 43 -28 47 -22
47 58 0 80 -4 86 -46 59 -33 -22 -49 -7 -46 42 2 20 -2 42 -9 50 -14 17 -61
18 -77 2 -9 -9 -15 -9 -24 0 -16 16 -63 15 -77 -2z"/>
</g>
</svg>
