<?xml version="1.0" encoding="UTF-8"?>
<svg version="1.1" xmlns="http://www.w3.org/2000/svg" width="609" height="683">
<path d="M0 0 C165.33 0 330.66 0 501 0 C501 245.7010989 501 245.7010989 489 294 C488.78649902 294.86206055 488.57299805 295.72412109 488.35302734 296.61230469 C479.04634675 333.60271106 465.8113941 372.43831169 445.765625 405.0390625 C442.03065809 411.30256895 438.64258598 417.76700477 435.24609375 424.21875 C428.60987606 436.75565559 421.32326729 448.51683295 413 460 C412.2260791 461.07121094 412.2260791 461.07121094 411.43652344 462.1640625 C405.46951764 470.37769334 399.22105236 478.28670106 392.58984375 485.97265625 C390.12447588 488.85449652 387.74446981 491.78918938 385.375 494.75 C381.93058122 498.98786525 378.28232378 502.86421539 374.3359375 506.63671875 C372.35770725 508.63810554 370.53686068 510.67834376 368.70703125 512.8125 C365.14252176 516.9203682 361.31113571 520.63177616 357.3125 524.3125 C356.26703003 525.28243896 356.26703003 525.28243896 355.20043945 526.27197266 C353.79451716 527.57492826 352.38691601 528.87607497 350.97753906 530.17529297 C349.20584662 531.81006202 347.44135418 533.45210187 345.6796875 535.09765625 C340.19780402 540.19896324 334.58652405 545.08100481 328.75 549.7734375 C325.95912854 552.03309195 323.23226431 554.35748571 320.5 556.6875 C303.14182015 571.16010614 284.25914028 584.7495412 264.8359375 596.30859375 C262.92201391 597.45009363 261.03122402 598.63117223 259.1640625 599.84765625 C257.84535156 600.69650391 257.84535156 600.69650391 256.5 601.5625 C255.7471875 602.05878906 254.994375 602.55507813 254.21875 603.06640625 C251.27658843 604.30439325 250.01766111 604.01336019 247 603 C244.73219742 601.83576504 242.60174148 600.64461081 240.4375 599.3125 C239.79474121 598.92094727 239.15198242 598.52939453 238.48974609 598.12597656 C219.64525671 586.4546084 201.75227195 572.99074433 184.96484375 558.53125 C182.24763118 556.21141634 179.48191319 553.97556534 176.6875 551.75 C165.03369847 542.21355583 154.39664591 531.49761997 143.7210083 520.89624023 C142.63215589 519.81544212 141.54182861 518.73612743 140.44989014 517.65844727 C134.2323777 511.51365287 128.38617077 505.29279178 122.9597168 498.42724609 C120.98184424 495.97751282 118.90082126 493.67336275 116.75 491.375 C110.9224975 484.96880822 105.77515485 478.04839445 100.59033203 471.12109375 C99.1410321 469.18810053 97.67957463 467.26505465 96.21484375 465.34375 C88.14516797 454.66207872 81.02057438 443.39032396 74 432 C73.45053711 431.10893555 72.90107422 430.21787109 72.33496094 429.29980469 C49.73266008 392.39947587 31.14922052 352.58583726 19 311 C18.73123047 310.09588379 18.46246094 309.19176758 18.18554688 308.26025391 C-11.71733894 207.22732591 0 107.99607789 0 0 Z " fill="#08316D" transform="translate(50,50)"/>
<path d="M0 0 C1.38638672 -0.02513672 1.38638672 -0.02513672 2.80078125 -0.05078125 C9.61404295 0.80663869 13.84171113 4.99160835 18.5625 9.5625 C19.80254443 10.74046927 21.04342335 11.91756073 22.28515625 13.09375 C22.87441895 13.65449219 23.46368164 14.21523438 24.07080078 14.79296875 C26.00024713 16.60645019 27.98569117 18.34405544 30 20.0625 C34.46166176 23.91140135 38.55930152 28.11257607 42.6875 32.3125 C43.533125 33.158125 44.37875 34.00375 45.25 34.875 C46.4565625 36.0815625 46.4565625 36.0815625 47.6875 37.3125 C48.33847656 37.90546875 48.98945313 38.4984375 49.66015625 39.109375 C53.75986969 42.94867107 56.35196491 45.92658385 57.98046875 51.31640625 C58.77476676 53.55887189 59.86323842 55.27727995 61.1875 57.25 C63.50090907 60.77552459 64.77207092 64.21285201 66.02734375 68.21875 C67.97230517 74.38738504 70.84276415 77.61431213 75.71484375 81.6640625 C78.19289381 83.73482908 80.40442974 86.02942974 82.6875 88.3125 C83.33203125 88.82683594 83.9765625 89.34117187 84.640625 89.87109375 C93.75112258 97.2773549 99.66520267 107.1968606 104.9375 117.5625 C107.25268482 121.95359076 108.95255159 123.5132196 113.6875 125.3125 C114.75211112 126.15113906 115.79657081 127.01554987 116.828125 127.89453125 C123.37235271 132.89124862 131.08472329 135.86188571 138.5625 139.1875 C140.14450936 139.89978025 141.72613278 140.6129183 143.30737305 141.3269043 C147.76178469 143.33481481 152.22352237 145.32596621 156.6875 147.3125 C157.77401855 147.79702637 158.86053711 148.28155273 159.97998047 148.78076172 C164.75381778 150.90906172 164.75381778 150.90906172 169.53662109 153.01708984 C173.3130808 154.67357112 177.01381659 156.43909023 180.6875 158.3125 C179.21324483 163.42856389 176.96114587 167.65445993 174.25 172.1875 C173.80897949 172.9292749 173.36795898 173.6710498 172.91357422 174.43530273 C162.51951704 191.70320365 150.43622083 208.03162996 137.27734375 223.28515625 C134.81197588 226.16699652 132.43196981 229.10168938 130.0625 232.0625 C126.61808122 236.30036525 122.96982378 240.17671539 119.0234375 243.94921875 C117.04520725 245.95060554 115.22436068 247.99084376 113.39453125 250.125 C109.83002176 254.2328682 105.99863571 257.94427616 102 261.625 C101.30302002 262.27162598 100.60604004 262.91825195 99.88793945 263.58447266 C98.48201716 264.88742826 97.07441601 266.18857497 95.66503906 267.48779297 C93.89334662 269.12256202 92.12885418 270.76460187 90.3671875 272.41015625 C84.88530402 277.51146324 79.27402405 282.39350481 73.4375 287.0859375 C70.64662854 289.34559195 67.91976431 291.66998571 65.1875 294 C47.82932015 308.47260614 28.94664028 322.0620412 9.5234375 333.62109375 C7.60951391 334.76259363 5.71872402 335.94367223 3.8515625 337.16015625 C2.97242188 337.72605469 2.09328125 338.29195312 1.1875 338.875 C0.4346875 339.37128906 -0.318125 339.86757813 -1.09375 340.37890625 C-4.03591157 341.61689325 -5.29483889 341.32586019 -8.3125 340.3125 C-10.58030258 339.14826504 -12.71075852 337.95711081 -14.875 336.625 C-15.83913818 336.0376709 -15.83913818 336.0376709 -16.82275391 335.43847656 C-35.66724329 323.7671084 -53.56022805 310.30324433 -70.34765625 295.84375 C-73.06486882 293.52391634 -75.83058681 291.28806534 -78.625 289.0625 C-90.27880153 279.52605583 -100.91585409 268.81011997 -111.5914917 258.20874023 C-112.68034411 257.12794212 -113.77067139 256.04862743 -114.86260986 254.97094727 C-121.0801223 248.82615287 -126.92632923 242.60529178 -132.3527832 235.73974609 C-134.33065576 233.29001282 -136.41167874 230.98586275 -138.5625 228.6875 C-144.38635031 222.28532309 -149.53154589 215.36958451 -154.71337891 208.44677734 C-156.19044914 206.47539597 -157.67821326 204.51257984 -159.16796875 202.55078125 C-166.47520737 192.84261145 -172.94596774 182.65622861 -179.3125 172.3125 C-173.79241494 162.65678851 -167.42460681 154.14693282 -156.76953125 149.9296875 C-149.31893218 148.05815387 -142.54701357 149.18470189 -135.3125 151.3125 C-123.4718993 150.40276118 -113.14641879 142.88084867 -105.3125 134.3125 C-104.29394018 132.81776347 -103.31226006 131.29701163 -102.375 129.75 C-100.06209583 125.95631298 -97.61845835 123.91671886 -93.9375 121.4375 C-87.90546989 117.33670569 -84.18675228 112.4254122 -80.3125 106.3125 C-79.78527344 105.4875 -79.25804687 104.6625 -78.71484375 103.8125 C-77.27717844 101.24953121 -76.31296362 98.7816861 -75.375 96 C-71.05675976 83.88944654 -66.0877663 75.94909908 -54.359375 70.00390625 C-43.52976205 63.99208265 -35.71340673 56.61958976 -30.40234375 45.37890625 C-29.25370508 43.20102146 -27.90349669 41.3512397 -26.4375 39.375 C-23.02442 34.44021934 -21.37220437 29.1257101 -19.49707031 23.48510742 C-17.71578833 18.21206803 -15.52132687 13.86556515 -12.3125 9.3125 C-11.59271926 8.02717725 -10.88402626 6.73557167 -10.1875 5.4375 C-7.39314076 0.78023461 -5.19952154 0.02157478 0 0 Z " fill="#CCAD17" transform="translate(305.3125,312.6875)"/>
<path d="M0 0 C0.99 0 1.98 0 3 0 C4.30194416 3.78821416 5.58962276 7.5811357 6.875 11.375 C7.23980469 12.43589844 7.60460937 13.49679688 7.98046875 14.58984375 C9.90361469 20.289349 11.53896234 25.86786168 12.56713867 31.79858398 C13.03179962 34.1617243 13.69906481 36.39633469 14.4375 38.6875 C23.96424461 69.51776898 27.9790346 105.78163699 15 136 C14.48824219 136.825 13.97648437 137.65 13.44921875 138.5 C11.5713229 141.73949689 10.64519429 145.08285098 9.75 148.6875 C9.57307617 149.39068359 9.39615234 150.09386719 9.21386719 150.81835938 C7.91692728 156.40006129 7.753377 161.363096 9 167 C10.84292025 164.23561963 11.90094055 161.81442856 13.125 158.75 C15.58429744 153.27115098 18.66347007 148.96136983 24 146 C26.75 145.82421875 26.75 145.82421875 29 146 C28.13403824 150.25108502 26.15663682 153.74780886 24.15625 157.5625 C22.41833065 161.22622188 21.88372681 164.41251757 21.82421875 168.44921875 C21.80037109 169.29806641 21.77652344 170.14691406 21.75195312 171.02148438 C21.70946226 172.77906108 21.6779557 174.53694259 21.65820312 176.29492188 C21.36136641 185.45544096 18.29239944 192.37642165 12 199 C7.56280243 201.21859878 2.08882365 200.66081612 -2.53125 199.19921875 C-9.42591954 196.02461616 -14.59917866 191.24066519 -20 186 C-20.68964844 185.39542969 -21.37929688 184.79085937 -22.08984375 184.16796875 C-33.28915119 173.98879624 -40.31584763 159.23633292 -41.23046875 144.21484375 C-41.85205791 123.30569609 -32.71950262 105.67509521 -20.22265625 89.34375 C-12.72235069 79.61750161 -12.72235069 79.61750161 -9 68 C-7.68 68 -6.36 68 -5 68 C-4.67 69.98 -4.34 71.96 -4 74 C-1.85610837 67.52573689 -0.39811852 61.35607912 0.1875 54.5625 C0.26718018 53.68650146 0.34686035 52.81050293 0.42895508 51.90795898 C1.53558794 38.20639398 2.39152184 23.57748236 0 10 C-0.06305204 8.20932194 -0.08671114 6.41662421 -0.0625 4.625 C-0.05347656 3.75101562 -0.04445313 2.87703125 -0.03515625 1.9765625 C-0.02355469 1.32429688 -0.01195312 0.67203125 0 0 Z " fill="#FC8F01" transform="translate(301,112)"/>
</svg>
