<?xml version="1.0" encoding="UTF-8"?>
<svg version="1.1" xmlns="http://www.w3.org/2000/svg" width="609" height="683">
<path d="M0 0 C200.97 0 401.94 0 609 0 C609 225.39 609 450.78 609 683 C408.03 683 207.06 683 0 683 C0 457.61 0 232.22 0 0 Z " fill="#20346B" transform="translate(0,0)"/>
<path d="M0 0 C200.97 0 401.94 0 609 0 C609 225.39 609 450.78 609 683 C408.03 683 207.06 683 0 683 C0 457.61 0 232.22 0 0 Z M50 50 C43.78006237 234.6561094 43.78006237 234.6561094 85 404 C85.6253029 405.58321373 86.25029029 407.16655211 86.875 408.75 C87.57992232 410.50137678 88.28856351 412.25125925 89 414 C89.64582031 415.59134766 89.64582031 415.59134766 90.3046875 417.21484375 C93.17413729 424.10927851 96.32332246 430.69539802 99.89526367 437.24609375 C102.39949643 441.84045017 104.75462783 446.49180757 107.0625 451.1875 C110.42162359 457.97626933 114.11052956 464.49902798 118 471 C118.80652192 472.38825881 119.61107982 473.77765981 120.4140625 475.16796875 C124.48811194 482.20313007 128.5897937 489.10304689 133.3671875 495.69140625 C135.12295905 498.1738488 136.71615732 500.72493988 138.3125 503.3125 C142.06555054 509.26388526 146.30771454 514.7786213 150.65869141 520.29541016 C152.0137723 522.01750241 153.35757413 523.74789414 154.69921875 525.48046875 C163.09359856 536.2910484 171.86116835 546.72478121 181.0703125 556.8515625 C182.6770779 558.64047135 184.22882283 560.45118384 185.75 562.3125 C188.03688561 565.04405782 190.47030137 567.49233067 193 570 C193.86238281 570.87398437 194.72476563 571.74796875 195.61328125 572.6484375 C200.28583707 577.36832746 204.99230172 581.95616982 210.05078125 586.265625 C212.23976394 588.21333705 214.268079 590.27630233 216.3125 592.375 C220.34865997 596.4595386 224.62711658 600.08683608 229.10546875 603.67578125 C232.14704976 606.1180764 235.13824793 608.61643187 238.125 611.125 C255.53742024 625.63906604 274.01907449 638.64839347 293.390625 650.40625 C295.28571479 651.56372999 297.15233771 652.76822514 299 654 C302.55473666 653.64978882 305.2041315 651.80721704 308.18359375 649.9375 C309.18753174 649.30980713 310.19146973 648.68211426 311.22583008 648.03540039 C312.28568115 647.36371826 313.34553223 646.69203613 314.4375 646 C315.52119873 645.31736084 316.60489746 644.63472168 317.72143555 643.93139648 C325.28896717 639.14159679 332.73497985 634.24000017 340 629 C340.8765625 628.37351562 341.753125 627.74703125 342.65625 627.1015625 C345.4520879 625.0869146 348.22761366 623.04680085 351 621 C351.59683594 620.56316895 352.19367188 620.12633789 352.80859375 619.67626953 C361.41524663 613.3706408 369.70529633 606.83783984 377.7421875 599.8203125 C380.74711963 597.19921558 383.8294288 594.68581336 386.9375 592.1875 C390.58889212 589.22474762 393.96940885 586.16404154 397.22460938 582.77441406 C398.96476082 581.03521979 400.76790073 579.44228436 402.640625 577.84765625 C407.31662222 573.78278477 411.69402332 569.45320812 416.0625 565.0625 C416.82626953 564.30259766 417.59003906 563.54269531 418.37695312 562.75976562 C422.57305772 558.55648207 426.60395392 554.26755213 430.47875977 549.76635742 C432.42070144 547.51151101 434.42848984 545.32009995 436.4375 543.125 C440.83904935 538.24017242 444.95834453 533.18452059 449 528 C449.77085937 527.02417969 450.54171875 526.04835938 451.3359375 525.04296875 C466.21102134 506.09109793 478.62182445 485.85105838 489.96484375 464.62890625 C492.28422888 460.29800634 494.6913244 456.04339157 497.1875 451.8125 C502.37200975 442.83257911 506.6670622 433.41249105 511 424 C511.33418945 423.28021973 511.66837891 422.56043945 512.01269531 421.81884766 C516.43726225 412.24464076 520.03058364 402.48213567 523.4375 392.50390625 C524.58889879 389.14405295 525.82214257 385.84255789 527.1875 382.5625 C535.24805611 363.05512323 540.77846627 340.84135088 544 320 C544.24215008 318.54274553 544.48571301 317.08572534 544.73046875 315.62890625 C559.06545986 228.236397 550 138.56038981 550 50 C385 50 220 50 50 50 Z " fill="#FEFEFE" transform="translate(0,0)"/>
<path d="M0 0 C1.38638672 -0.02513672 1.38638672 -0.02513672 2.80078125 -0.05078125 C9.85669251 0.83717511 14.18396968 5.32725519 19.0625 10.0625 C20.39364479 11.33165957 21.72566658 12.59989999 23.05859375 13.8671875 C24.00387939 14.76969238 24.00387939 14.76969238 24.96826172 15.69042969 C26.97236165 17.58126183 29.03079429 19.39722474 31.125 21.1875 C35.19077367 24.68760081 38.93278993 28.48448757 42.6875 32.3125 C43.5125 33.1375 44.3375 33.9625 45.1875 34.8125 C46.0125 35.6375 46.8375 36.4625 47.6875 37.3125 C48.33976563 37.90675781 48.99203125 38.50101562 49.6640625 39.11328125 C53.75274421 42.94177412 56.33914914 45.91571635 57.9765625 51.28515625 C59.39503099 55.33012957 61.75835754 60.34792877 65.6875 62.3125 C65.97941668 63.99028374 66.1956316 65.68148278 66.375 67.375 C67.41679082 73.74976761 70.10758275 76.95306017 74.6875 81.3125 C75.863125 82.5809375 75.863125 82.5809375 77.0625 83.875 C79.30526184 85.95756457 81.54124132 87.6927073 84 89.5 C93.8342174 97.07104485 100.97549959 108.48017912 106.25 119.609375 C108.14741061 123.1773319 110.03808237 123.65993353 113.6875 125.3125 C114.75208096 126.16268984 115.80119931 127.03237484 116.83984375 127.9140625 C123.38305494 132.89580003 131.09326552 135.86568472 138.5625 139.1875 C140.14450936 139.89978025 141.72613278 140.6129183 143.30737305 141.3269043 C147.76178469 143.33481481 152.22352237 145.32596621 156.6875 147.3125 C157.77401855 147.79702637 158.86053711 148.28155273 159.97998047 148.78076172 C164.75381778 150.90906172 164.75381778 150.90906172 169.53662109 153.01708984 C173.3130808 154.67357112 177.01381659 156.43909023 180.6875 158.3125 C176.5086061 167.01323653 172.09843276 175.2966955 166.6875 183.3125 C166.29578613 183.89725098 165.90407227 184.48200195 165.50048828 185.08447266 C155.10973886 200.56537903 144.057352 215.35540535 131.6875 229.3125 C130.90632813 230.19421875 130.12515625 231.0759375 129.3203125 231.984375 C127.12297476 234.43976308 124.90703647 236.87717527 122.6875 239.3125 C121.883125 240.2096875 121.07875 241.106875 120.25 242.03125 C114.81539891 248.04812978 109.22236193 253.88070313 103.5 259.625 C102.84700928 260.28258301 102.19401855 260.94016602 101.52124023 261.61767578 C97.63890171 265.48779494 93.64283521 269.16974224 89.4934082 272.75170898 C87.2502382 274.69041195 85.06317436 276.68710242 82.875 278.6875 C77.6254551 283.41768353 72.20313781 287.89707528 66.6875 292.3125 C66.1723584 292.72725586 65.6572168 293.14201172 65.12646484 293.56933594 C55.2411487 301.51465505 45.0393761 308.98814598 34.6875 316.3125 C34.02524414 316.78155762 33.36298828 317.25061523 32.68066406 317.73388672 C28.05967003 320.99252065 23.39110974 324.17443494 18.6875 327.3125 C17.77226562 327.92432129 16.85703125 328.53614258 15.9140625 329.16650391 C12.93219663 331.14805552 9.937165 333.108017 6.9375 335.0625 C5.98391602 335.69599365 5.03033203 336.3294873 4.04785156 336.98217773 C3.1503418 337.56040283 2.25283203 338.13862793 1.328125 338.734375 C0.52922852 339.25612305 -0.26966797 339.77787109 -1.09277344 340.31542969 C-3.3125 341.3125 -3.3125 341.3125 -5.40869141 341.07373047 C-8.40020683 339.87758465 -11.15881285 338.30313817 -13.9375 336.6875 C-14.56140625 336.3270459 -15.1853125 335.9665918 -15.828125 335.59521484 C-21.2045132 332.44930868 -26.27735543 328.97850422 -31.3125 325.3125 C-32.44814451 324.50629715 -33.58494094 323.70171538 -34.72265625 322.8984375 C-40.57550784 318.76005759 -46.37511495 314.58404801 -51.99609375 310.1328125 C-54.24340784 308.36679502 -56.52165577 306.64575225 -58.80371094 304.92504883 C-66.95831869 298.74816498 -74.64009483 292.07307829 -82.3125 285.3125 C-83.7912545 284.02036149 -85.27032731 282.72858696 -86.75 281.4375 C-87.34296875 280.91671875 -87.9359375 280.3959375 -88.546875 279.859375 C-89.82420343 278.74029965 -91.10603672 277.62635923 -92.390625 276.515625 C-93.43476563 275.61070312 -93.43476563 275.61070312 -94.5 274.6875 C-95.41845703 273.89472656 -95.41845703 273.89472656 -96.35546875 273.0859375 C-98.75922377 270.90768445 -101.02910054 268.61650156 -103.3125 266.3125 C-104.18648438 265.45011719 -105.06046875 264.58773438 -105.9609375 263.69921875 C-110.70261676 259.00509214 -115.31420044 254.27650828 -119.64453125 249.1953125 C-121.41168128 247.20054361 -123.27536412 245.35578609 -125.1875 243.5 C-129.47447929 239.26220211 -133.22316897 234.67461406 -136.98193359 229.96826172 C-138.46189636 228.12659062 -139.95817368 226.29898014 -141.45703125 224.47265625 C-155.30663199 207.57967838 -168.11142186 190.09275077 -179.3125 171.3125 C-165.77904907 152.34725585 -165.77904907 152.34725585 -154.3125 149.3125 C-148.84578773 148.78748562 -143.56207009 148.4863699 -138.35546875 150.3984375 C-132.27218447 152.22576551 -127.39735869 150.21618488 -122 147.3125 C-114.0409586 142.82982151 -107.15498723 137.63969483 -102.375 129.75 C-100.06209583 125.95631298 -97.61845835 123.91671886 -93.9375 121.4375 C-87.90546989 117.33670569 -84.18675228 112.4254122 -80.3125 106.3125 C-79.78527344 105.4875 -79.25804687 104.6625 -78.71484375 103.8125 C-77.27717844 101.24953121 -76.31296362 98.7816861 -75.375 96 C-71.05675976 83.88944654 -66.0877663 75.94909908 -54.359375 70.00390625 C-43.52976205 63.99208265 -35.71340673 56.61958976 -30.40234375 45.37890625 C-29.25370508 43.20102146 -27.90349669 41.3512397 -26.4375 39.375 C-23.5482922 35.18889094 -22.05382879 30.97673493 -20.5 26.1875 C-18.47363303 19.99356932 -16.00033116 14.45614868 -12.625 8.875 C-12.24432373 8.24255371 -11.86364746 7.61010742 -11.47143555 6.95849609 C-8.27697785 1.86453601 -6.02198133 0.02498747 0 0 Z " fill="#C2AA30" transform="translate(305.3125,312.6875)"/>
<path d="M0 0 C0.99 0 1.98 0 3 0 C11.50145916 24.52216125 11.50145916 24.52216125 13.4296875 35.1953125 C13.94988353 38.04857246 13.94988353 38.04857246 14.9765625 40.90625 C16.12230783 44.36972445 16.82027277 47.79165537 17.5 51.375 C18.23918401 55.25571607 19.00837023 59.09348441 20.0234375 62.91015625 C21.13095148 67.26004924 21.67774378 71.60144129 22.125 76.0625 C22.2084668 76.89322021 22.29193359 77.72394043 22.37792969 78.57983398 C24.44586022 100.57797257 22.73230248 121.65458525 12.25 141.375 C7.8990336 149.65587154 7.53898151 157.89824968 9 167 C10.84292025 164.23561963 11.90094055 161.81442856 13.125 158.75 C15.58429744 153.27115098 18.66347007 148.96136983 24 146 C26.75 145.82421875 26.75 145.82421875 29 146 C28.13403824 150.25108502 26.15663682 153.74780886 24.15625 157.5625 C22.41833065 161.22622188 21.88372681 164.41251757 21.82421875 168.44921875 C21.80037109 169.29806641 21.77652344 170.14691406 21.75195312 171.02148438 C21.70946226 172.77906108 21.6779557 174.53694259 21.65820312 176.29492188 C21.36136641 185.45544096 18.29239944 192.37642165 12 199 C7.56280243 201.21859878 2.08882365 200.66081612 -2.53125 199.19921875 C-9.42582907 196.02465782 -14.59939371 191.24071992 -20 186 C-20.70125 185.38382813 -21.4025 184.76765625 -22.125 184.1328125 C-28.41274142 178.40998535 -32.10401916 171.44642014 -36 164 C-36.5465625 162.9584375 -37.093125 161.916875 -37.65625 160.84375 C-42.86935972 149.81135502 -42.50057728 134.66945425 -39.171875 123.12890625 C-34.7493283 111.32070657 -28.43247644 99.64554671 -20.48046875 89.859375 C-14.90073281 82.97988399 -11.11409786 76.75615159 -9 68 C-8.01 68 -7.02 68 -6 68 C-5.34 69.98 -4.68 71.96 -4 74 C4.78074203 51.70455067 1.33970114 23.39692344 0 0 Z " fill="#F48E1E" transform="translate(301,112)"/>
</svg>
